<svg version="1" xmlns="http://www.w3.org/2000/svg" width="2133.333" height="2133.333" viewBox="0 0 1600.000000 1600.000000"><path d="M323.2 308.7c-3.4 14.2-11.2 46.4-17.2 71.6-6.1 25.1-11 45.9-11 46.2 0 .3 82.2.5 182.7.5h182.8l-5.2 3.5c-14.9 10-24.7 32.8-31 72-1.8 10.7-1.8 13.5-2.6 299.5-.4 126-.3 123.5-5.2 140.5-8 28-18.6 45.7-36.6 61.4-7.2 6.3-19.2 13.5-28.7 17.4-22.7 9.2-68.4 9-94-.5-23.1-8.5-41-25.7-50.7-48.7-1.5-3.6-2.8-7.2-3-8-.2-.9-1.3-5-2.4-9.2-3.3-11.6-5.1-23.2-5.7-35.9-.3-6.3-.7-12.6-.8-14l-.3-2.5-90.1-.2-90.2-.2v11.4c0 39.2 10.9 87.9 27.1 121 14.9 30.4 36.8 57.6 62.4 77.6 42.6 33.3 93.8 52.1 161 59 13.7 1.4 58.4 1.8 72.5.7 36.9-2.9 76.8-12.7 106.8-26.2 5.6-2.5 10.4-4.6 10.5-4.6 1.2 0 24.8-13.7 32.7-18.9 9.9-6.6 12.2-8.4 21.8-16.5 34.7-29.5 58.6-63.6 75-107.2 5.4-14.2 12.2-40.8 14.6-56.9.8-5.5 1.8-11.8 2.2-14 .4-2.2.9-148.1 1.1-324.3l.4-320.2H329.4l-6.2 25.7z"/><path d="M894 699.3c0 283.7.3 268.9-5.6 297.7-11.2 54.7-34.4 98.8-69.5 132.5-9.7 9.4-23.6 20.1-35 27.2-8.3 5.2-28.4 15.3-30.4 15.3-1.3 0-1.5 8.4-1.5 73v73h599.9l1-3.8c3.5-13.1 33.3-139.4 33-139.6-.2-.2-86.3-.6-191.3-1-105.1-.4-191.2-.9-191.4-1.1-.3-.2.4-.7 1.4-1 10.2-3.2 18.8-10 25.8-20.4 17.5-26.2 30.3-75.5 37-143.1 5.1-51 4.9-39.8 5.3-313.3l.4-255.7H894v260.3z"/></svg>